<svg width="2515" height="179" viewBox="0 0 2515 179" fill="none" xmlns="http://www.w3.org/2000/svg">
<rect x="15" y="17" width="2500" height="53" fill="white" fill-opacity="0.25"/>
<rect x="15" y="104" width="2500" height="54" fill="white" fill-opacity="0.25"/>
<rect x="121" y="30" width="2394" height="56" fill="white" fill-opacity="0.25"/>
<path d="M19.375 75H57.0114V63.5455H33.5909V54.5455H55.1705V43.0909H33.5909V34.0909H57.1136V22.6364H19.375V75ZM103.948 35.7273H89.1186L82.7777 61.7045H82.3686L76.0277 35.7273H61.1982L74.3913 75H90.755L103.948 35.7273ZM125.688 90.5455C138.114 90.5455 146.347 84.8693 146.347 74.8977V35.7273H132.233V42.5795H131.926C130.392 38.5909 126.71 35.2159 120.881 35.2159C113.108 35.2159 105.54 41.1477 105.54 55.3636C105.54 68.9659 112.597 74.4886 120.983 74.4886C126.301 74.4886 130.494 72.2386 132.028 68.25H132.438V74.8977C132.438 79.5256 129.753 81.0341 126.097 81.0341C122.849 81.0341 120.472 80.0625 120.062 77.5568H106.46C106.997 85.125 113.875 90.5455 125.688 90.5455ZM126.199 64.4659C122.312 64.4659 120.062 61.1932 120.062 55.3636C120.062 49.5341 122.312 46.0568 126.199 46.0568C130.085 46.0568 132.438 49.5341 132.438 55.3636C132.438 61.0909 130.085 64.4659 126.199 64.4659ZM172.343 75.7159C183.235 75.7159 190.241 70.5 191.57 62.3182H178.684C177.866 64.5426 175.539 65.7955 172.65 65.7955C168.457 65.7955 166.002 63.0341 166.002 59.25V58.6364H191.57V55.3636C191.57 42.8608 183.9 35.2159 172.036 35.2159C159.866 35.2159 152.093 43.2955 152.093 55.4659C152.093 68.1733 159.763 75.7159 172.343 75.7159ZM166.002 50.8636C166.079 47.4631 168.891 45.1364 172.343 45.1364C175.846 45.1364 178.505 47.4886 178.582 50.8636H166.002ZM211.443 52.9091C211.469 49.0227 213.668 46.6705 217.17 46.6705C220.724 46.6705 222.821 49.0227 222.795 52.9091V75H236.909V49.9432C236.935 41.4034 231.54 35.2159 223.205 35.2159C217.426 35.2159 212.849 38.233 211.136 43.1932H210.727V35.7273H197.33V75H211.443V52.9091ZM251.061 89.7273C260.93 89.7273 265.558 84.767 267.732 78.2727L282.05 35.7273H267.22L260.777 62.9318H260.368L254.027 35.7273H239.3L253.107 76.7386L252.8 77.4545C251.854 79.6278 249.118 79.5511 245.641 78.3239L242.572 88.3466C244.771 89.2159 247.814 89.7273 251.061 89.7273ZM19.375 162H44.0227C55.4006 162 62.4318 155.787 62.4318 147.17C62.4318 139.781 56.9858 134.949 50.2614 134.693V134.182C56.321 132.98 60.3864 128.506 60.3864 122.727C60.3864 114.75 54.0455 109.636 42.0795 109.636H19.375V162ZM33.5909 150.648V139.602H40.4432C44.7642 139.602 47.3977 141.648 47.3977 145.33C47.3977 148.832 45.0199 150.648 40.2386 150.648H33.5909ZM33.5909 130.807V120.784H39.625C43.1534 120.784 45.7614 122.574 45.7614 125.795C45.7614 129.017 43.1534 130.807 39.4205 130.807H33.5909ZM86.4915 162.716C97.3835 162.716 104.389 157.5 105.719 149.318H92.8324C92.0142 151.543 89.6875 152.795 86.7983 152.795C82.6051 152.795 80.1506 150.034 80.1506 146.25V145.636H105.719V142.364C105.719 129.861 98.0483 122.216 86.1847 122.216C74.0142 122.216 66.2415 130.295 66.2415 142.466C66.2415 155.173 73.9119 162.716 86.4915 162.716ZM80.1506 137.864C80.2273 134.463 83.0398 132.136 86.4915 132.136C89.9943 132.136 92.6534 134.489 92.7301 137.864H80.1506ZM111.478 162H125.592V141.545C125.592 137.045 128.685 134.08 132.853 134.08C134.31 134.08 136.663 134.31 138.069 134.795V122.753C136.944 122.42 135.717 122.216 134.489 122.216C130.296 122.216 127.023 124.67 125.592 130.193H125.183V122.727H111.478V162ZM159.265 162.716C170.157 162.716 177.163 157.5 178.492 149.318H165.606C164.788 151.543 162.461 152.795 159.572 152.795C155.379 152.795 152.924 150.034 152.924 146.25V145.636H178.492V142.364C178.492 129.861 170.822 122.216 158.958 122.216C146.788 122.216 139.015 130.295 139.015 142.466C139.015 155.173 146.685 162.716 159.265 162.716ZM152.924 137.864C153.001 134.463 155.813 132.136 159.265 132.136C162.768 132.136 165.427 134.489 165.504 137.864H152.924ZM184.661 162H219.126V151.261H202.865V151.057L218.513 131.318V122.727H185.274V133.466H201.842V133.67L184.661 154.227V162ZM226.931 162H241.045V122.727H226.931V162ZM233.988 118.636C237.823 118.636 240.942 115.747 240.942 112.193C240.942 108.639 237.823 105.75 233.988 105.75C230.153 105.75 227.033 108.639 227.033 112.193C227.033 115.747 230.153 118.636 233.988 118.636ZM262.349 139.909C262.375 136.023 264.574 133.67 268.077 133.67C271.631 133.67 273.727 136.023 273.702 139.909V162H287.815V136.943C287.841 128.403 282.446 122.216 274.111 122.216C268.332 122.216 263.756 125.233 262.043 130.193H261.634V122.727H248.236V162H262.349V139.909Z" fill="#672D91"/>
<path d="M19.375 75H18.375V76H19.375V75ZM57.0114 75V76H58.0114V75H57.0114ZM57.0114 63.5455H58.0114V62.5455H57.0114V63.5455ZM33.5909 63.5455H32.5909V64.5455H33.5909V63.5455ZM33.5909 54.5455V53.5455H32.5909V54.5455H33.5909ZM55.1705 54.5455V55.5455H56.1705V54.5455H55.1705ZM55.1705 43.0909H56.1705V42.0909H55.1705V43.0909ZM33.5909 43.0909H32.5909V44.0909H33.5909V43.0909ZM33.5909 34.0909V33.0909H32.5909V34.0909H33.5909ZM57.1136 34.0909V35.0909H58.1136V34.0909H57.1136ZM57.1136 22.6364H58.1136V21.6364H57.1136V22.6364ZM19.375 22.6364V21.6364H18.375V22.6364H19.375ZM19.375 76H57.0114V74H19.375V76ZM58.0114 75V63.5455H56.0114V75H58.0114ZM57.0114 62.5455H33.5909V64.5455H57.0114V62.5455ZM34.5909 63.5455V54.5455H32.5909V63.5455H34.5909ZM33.5909 55.5455H55.1705V53.5455H33.5909V55.5455ZM56.1705 54.5455V43.0909H54.1705V54.5455H56.1705ZM55.1705 42.0909H33.5909V44.0909H55.1705V42.0909ZM34.5909 43.0909V34.0909H32.5909V43.0909H34.5909ZM33.5909 35.0909H57.1136V33.0909H33.5909V35.0909ZM58.1136 34.0909V22.6364H56.1136V34.0909H58.1136ZM57.1136 21.6364H19.375V23.6364H57.1136V21.6364ZM18.375 22.6364V75H20.375V22.6364H18.375ZM103.948 35.7273L104.896 36.0457L105.339 34.7273H103.948V35.7273ZM89.1186 35.7273V34.7273H88.3333L88.1471 35.4901L89.1186 35.7273ZM82.7777 61.7045V62.7045H83.563L83.7492 61.9417L82.7777 61.7045ZM82.3686 61.7045L81.3971 61.9417L81.5833 62.7045H82.3686V61.7045ZM76.0277 35.7273L76.9992 35.4901L76.813 34.7273H76.0277V35.7273ZM61.1982 35.7273V34.7273H59.8073L60.2502 36.0457L61.1982 35.7273ZM74.3913 75L73.4434 75.3184L73.6724 76H74.3913V75ZM90.755 75V76H91.474L91.7029 75.3184L90.755 75ZM103.948 34.7273H89.1186V36.7273H103.948V34.7273ZM88.1471 35.4901L81.8062 61.4674L83.7492 61.9417L90.0901 35.9644L88.1471 35.4901ZM82.7777 60.7045H82.3686V62.7045H82.7777V60.7045ZM83.3401 61.4674L76.9992 35.4901L75.0562 35.9644L81.3971 61.9417L83.3401 61.4674ZM76.0277 34.7273H61.1982V36.7273H76.0277V34.7273ZM60.2502 36.0457L73.4434 75.3184L75.3393 74.6816L62.1461 35.4088L60.2502 36.0457ZM74.3913 76H90.755V74H74.3913V76ZM91.7029 75.3184L104.896 36.0457L103 35.4088L89.807 74.6816L91.7029 75.3184ZM146.347 35.7273H147.347V34.7273H146.347V35.7273ZM132.233 35.7273V34.7273H131.233V35.7273H132.233ZM132.233 42.5795V43.5795H133.233V42.5795H132.233ZM131.926 42.5795L130.993 42.9385L131.239 43.5795H131.926V42.5795ZM132.028 68.25V67.25H131.342L131.095 67.891L132.028 68.25ZM132.438 68.25H133.438V67.25H132.438V68.25ZM120.062 77.5568L121.049 77.3957L120.912 76.5568H120.062V77.5568ZM106.46 77.5568V76.5568H105.387L105.463 77.6276L106.46 77.5568ZM125.688 91.5455C132.037 91.5455 137.434 90.0974 141.271 87.2655C145.143 84.4077 147.347 80.1945 147.347 74.8977H145.347C145.347 79.5726 143.434 83.1832 140.083 85.6563C136.697 88.1555 131.764 89.5455 125.688 89.5455V91.5455ZM147.347 74.8977V35.7273H145.347V74.8977H147.347ZM146.347 34.7273H132.233V36.7273H146.347V34.7273ZM131.233 35.7273V42.5795H133.233V35.7273H131.233ZM132.233 41.5795H131.926V43.5795H132.233V41.5795ZM132.859 42.2206C131.194 37.8892 127.169 34.2159 120.881 34.2159V36.2159C126.252 36.2159 129.591 39.2926 130.993 42.9385L132.859 42.2206ZM120.881 34.2159C116.733 34.2159 112.614 35.8039 109.544 39.2988C106.48 42.7875 104.54 48.0823 104.54 55.3636H106.54C106.54 48.4291 108.384 43.65 111.047 40.6188C113.704 37.5938 117.256 36.2159 120.881 36.2159V34.2159ZM104.54 55.3636C104.54 62.3305 106.348 67.3823 109.378 70.7012C112.415 74.0286 116.566 75.4886 120.983 75.4886V73.4886C117.013 73.4886 113.443 72.1873 110.855 69.3528C108.26 66.5098 106.54 61.999 106.54 55.3636H104.54ZM120.983 75.4886C126.553 75.4886 131.229 73.1153 132.962 68.609L131.095 67.891C129.76 71.362 126.049 73.4886 120.983 73.4886V75.4886ZM132.028 69.25H132.438V67.25H132.028V69.25ZM131.438 68.25V74.8977H133.438V68.25H131.438ZM131.438 74.8977C131.438 77.0154 130.831 78.2279 129.992 78.9383C129.121 79.6761 127.813 80.0341 126.097 80.0341V82.0341C128.037 82.0341 129.899 81.6378 131.284 80.4644C132.702 79.2636 133.438 77.4079 133.438 74.8977H131.438ZM126.097 80.0341C124.551 80.0341 123.33 79.7993 122.483 79.3511C121.683 78.9283 121.199 78.313 121.049 77.3957L119.076 77.718C119.335 79.3063 120.244 80.4296 121.548 81.1191C122.803 81.7831 124.395 82.0341 126.097 82.0341V80.0341ZM120.062 76.5568H106.46V78.5568H120.062V76.5568ZM105.463 77.6276C105.753 81.7235 107.771 85.2396 111.269 87.7064C114.747 90.1586 119.639 91.5455 125.688 91.5455V89.5455C119.924 89.5455 115.471 88.222 112.422 86.072C109.394 83.9366 107.704 80.9584 107.458 77.4861L105.463 77.6276ZM126.199 63.4659C124.581 63.4659 123.36 62.8073 122.501 61.5399C121.608 60.2221 121.062 58.1722 121.062 55.3636H119.062C119.062 58.3846 119.642 60.8858 120.845 62.6619C122.083 64.4881 123.93 65.4659 126.199 65.4659V63.4659ZM121.062 55.3636C121.062 52.5561 121.608 50.4473 122.509 49.0727C123.38 47.7459 124.605 47.0568 126.199 47.0568V45.0568C123.906 45.0568 122.063 46.1064 120.837 47.9756C119.642 49.797 119.062 52.3416 119.062 55.3636H121.062ZM126.199 47.0568C127.796 47.0568 129.05 47.7496 129.946 49.0819C130.87 50.457 131.438 52.5638 131.438 55.3636H133.438C133.438 52.3339 132.829 49.7873 131.606 47.9664C130.353 46.1027 128.488 45.0568 126.199 45.0568V47.0568ZM131.438 55.3636C131.438 58.1097 130.871 60.161 129.952 61.4954C129.062 62.7875 127.809 63.4659 126.199 63.4659V65.4659C128.475 65.4659 130.341 64.4568 131.599 62.6296C132.828 60.8447 133.438 58.3449 133.438 55.3636H131.438ZM191.57 62.3182L192.557 62.4786L192.746 61.3182H191.57V62.3182ZM178.684 62.3182V61.3182H177.986L177.745 61.973L178.684 62.3182ZM166.002 58.6364V57.6364H165.002V58.6364H166.002ZM191.57 58.6364V59.6364H192.57V58.6364H191.57ZM166.002 50.8636L165.002 50.8411L164.979 51.8636H166.002V50.8636ZM178.582 50.8636V51.8636H179.605L179.581 50.8409L178.582 50.8636ZM172.343 76.7159C177.943 76.7159 182.634 75.3752 186.121 72.9008C189.623 70.4162 191.85 66.8287 192.557 62.4786L190.583 62.1578C189.961 65.9895 188.021 69.1008 184.964 71.2697C181.893 73.4487 177.635 74.7159 172.343 74.7159V76.7159ZM191.57 61.3182H178.684V63.3182H191.57V61.3182ZM177.745 61.973C177.121 63.67 175.283 64.7955 172.65 64.7955V66.7955C175.795 66.7955 178.61 65.4152 179.622 62.6634L177.745 61.973ZM172.65 64.7955C170.78 64.7955 169.391 64.1854 168.468 63.2426C167.542 62.2953 167.002 60.9247 167.002 59.25H165.002C165.002 61.3594 165.689 63.2615 167.039 64.641C168.392 66.0249 170.326 66.7955 172.65 66.7955V64.7955ZM167.002 59.25V58.6364H165.002V59.25H167.002ZM166.002 59.6364H191.57V57.6364H166.002V59.6364ZM192.57 58.6364V55.3636H190.57V58.6364H192.57ZM192.57 55.3636C192.57 48.9063 190.586 43.599 186.967 39.9017C183.346 36.2026 178.187 34.2159 172.036 34.2159V36.2159C177.749 36.2159 182.357 38.0517 185.538 41.3007C188.72 44.5516 190.57 49.3181 190.57 55.3636H192.57ZM172.036 34.2159C165.723 34.2159 160.466 36.3164 156.786 40.0777C153.109 43.8364 151.093 49.1655 151.093 55.4659H153.093C153.093 49.5959 154.964 44.8 158.216 41.4763C161.465 38.1552 166.179 36.2159 172.036 36.2159V34.2159ZM151.093 55.4659C151.093 62.0219 153.076 67.3626 156.795 71.0649C160.514 74.7665 165.853 76.7159 172.343 76.7159V74.7159C166.253 74.7159 161.468 72.894 158.206 69.6475C154.945 66.4016 153.093 61.6173 153.093 55.4659H151.093ZM167.002 50.8862C167.064 48.1242 169.334 46.1364 172.343 46.1364V44.1364C168.448 44.1364 165.093 46.8019 165.002 50.8411L167.002 50.8862ZM172.343 46.1364C175.372 46.1364 177.519 48.1219 177.582 50.8864L179.581 50.8409C179.491 46.8553 176.319 44.1364 172.343 44.1364V46.1364ZM178.582 49.8636H166.002V51.8636H178.582V49.8636ZM211.443 52.9091L210.443 52.9025V52.9091H211.443ZM222.795 52.9091L221.795 52.9025V52.9091H222.795ZM222.795 75H221.795V76H222.795V75ZM236.909 75V76H237.909V75H236.909ZM236.909 49.9432L235.909 49.9402V49.9432H236.909ZM211.136 43.1932V44.1932H211.849L212.082 43.5196L211.136 43.1932ZM210.727 43.1932H209.727V44.1932H210.727V43.1932ZM210.727 35.7273H211.727V34.7273H210.727V35.7273ZM197.33 35.7273V34.7273H196.33V35.7273H197.33ZM197.33 75H196.33V76H197.33V75ZM211.443 75V76H212.443V75H211.443ZM212.443 52.9157C212.455 51.1553 212.956 49.8579 213.738 49.0105C214.51 48.1731 215.653 47.6705 217.17 47.6705V45.6705C215.186 45.6705 213.477 46.3439 212.268 47.6543C211.068 48.9546 210.457 50.7765 210.443 52.9025L212.443 52.9157ZM217.17 47.6705C218.717 47.6705 219.839 48.1748 220.582 49.0009C221.336 49.8402 221.807 51.1331 221.795 52.9025L223.795 52.9157C223.809 50.7987 223.245 48.9723 222.069 47.6639C220.881 46.3423 219.178 45.6705 217.17 45.6705V47.6705ZM221.795 52.9091V75H223.795V52.9091H221.795ZM222.795 76H236.909V74H222.795V76ZM237.909 75V49.9432H235.909V75H237.909ZM237.909 49.9462C237.922 45.4662 236.512 41.53 233.931 38.7028C231.341 35.867 227.634 34.2159 223.205 34.2159V36.2159C227.111 36.2159 230.269 37.6586 232.454 40.0515C234.647 42.4529 235.921 45.8804 235.909 49.9402L237.909 49.9462ZM223.205 34.2159C217.059 34.2159 212.062 37.45 210.191 42.8667L212.082 43.5196C213.637 39.0159 217.793 36.2159 223.205 36.2159V34.2159ZM211.136 42.1932H210.727V44.1932H211.136V42.1932ZM211.727 43.1932V35.7273H209.727V43.1932H211.727ZM210.727 34.7273H197.33V36.7273H210.727V34.7273ZM196.33 35.7273V75H198.33V35.7273H196.33ZM197.33 76H211.443V74H197.33V76ZM212.443 75V52.9091H210.443V75H212.443ZM267.732 78.2727L266.784 77.9538L266.783 77.9554L267.732 78.2727ZM282.05 35.7273L282.997 36.0462L283.441 34.7273H282.05V35.7273ZM267.22 35.7273V34.7273H266.429L266.247 35.4968L267.22 35.7273ZM260.777 62.9318V63.9318H261.568L261.75 63.1623L260.777 62.9318ZM260.368 62.9318L259.394 63.1588L259.574 63.9318H260.368V62.9318ZM254.027 35.7273L255.001 35.5003L254.821 34.7273H254.027V35.7273ZM239.3 35.7273V34.7273H237.908L238.352 36.0463L239.3 35.7273ZM253.107 76.7386L254.026 77.1326L254.176 76.7815L254.054 76.4196L253.107 76.7386ZM252.8 77.4545L253.717 77.8537L253.719 77.8485L252.8 77.4545ZM245.641 78.3239L245.973 77.3809L244.99 77.0337L244.684 78.0311L245.641 78.3239ZM242.572 88.3466L241.616 88.0539L241.346 88.937L242.205 89.2766L242.572 88.3466ZM251.061 90.7273C256.169 90.7273 260.021 89.4403 262.893 87.2274C265.757 85.0202 267.551 81.9642 268.68 78.5901L266.783 77.9554C265.739 81.0756 264.133 83.7469 261.672 85.6433C259.219 87.5341 255.822 88.7273 251.061 88.7273V90.7273ZM268.679 78.5917L282.997 36.0462L281.102 35.4083L266.784 77.9538L268.679 78.5917ZM282.05 34.7273H267.22V36.7273H282.05V34.7273ZM266.247 35.4968L259.804 62.7014L261.75 63.1623L268.193 35.9577L266.247 35.4968ZM260.777 61.9318H260.368V63.9318H260.777V61.9318ZM261.342 62.7048L255.001 35.5003L253.053 35.9543L259.394 63.1588L261.342 62.7048ZM254.027 34.7273H239.3V36.7273H254.027V34.7273ZM238.352 36.0463L252.159 77.0577L254.054 76.4196L240.247 35.4082L238.352 36.0463ZM252.187 76.3447L251.881 77.0606L253.719 77.8485L254.026 77.1326L252.187 76.3447ZM251.883 77.0554C251.592 77.7244 251.053 78.0904 250.09 78.1676C249.062 78.2499 247.667 77.9788 245.973 77.3809L245.308 79.2669C247.091 79.8962 248.803 80.2771 250.249 80.1612C251.759 80.0403 253.062 79.358 253.717 77.8537L251.883 77.0554ZM244.684 78.0311L241.616 88.0539L243.529 88.6393L246.597 78.6166L244.684 78.0311ZM242.205 89.2766C244.551 90.2041 247.725 90.7273 251.061 90.7273V88.7273C247.903 88.7273 244.992 88.2278 242.94 87.4166L242.205 89.2766ZM19.375 162H18.375V163H19.375V162ZM50.2614 134.693H49.2614V135.656L50.2234 135.692L50.2614 134.693ZM50.2614 134.182L50.0668 133.201L49.2614 133.361V134.182H50.2614ZM19.375 109.636V108.636H18.375V109.636H19.375ZM33.5909 150.648H32.5909V151.648H33.5909V150.648ZM33.5909 139.602V138.602H32.5909V139.602H33.5909ZM33.5909 130.807H32.5909V131.807H33.5909V130.807ZM33.5909 120.784V119.784H32.5909V120.784H33.5909ZM19.375 163H44.0227V161H19.375V163ZM44.0227 163C49.8874 163 54.7325 161.398 58.1313 158.587C61.5449 155.764 63.4318 151.772 63.4318 147.17H61.4318C61.4318 151.186 59.8031 154.609 56.8566 157.046C53.8953 159.495 49.5359 161 44.0227 161V163ZM63.4318 147.17C63.4318 139.193 57.5088 133.968 50.2994 133.694L50.2234 135.692C56.4628 135.93 61.4318 140.369 61.4318 147.17H63.4318ZM51.2614 134.693V134.182H49.2614V134.693H51.2614ZM50.4559 135.163C56.914 133.882 61.3864 129.051 61.3864 122.727H59.3864C59.3864 127.961 55.7281 132.078 50.0668 133.201L50.4559 135.163ZM61.3864 122.727C61.3864 118.441 59.6663 114.862 56.3143 112.386C53.0009 109.939 48.1865 108.636 42.0795 108.636V110.636C47.9385 110.636 52.2775 111.891 55.1261 113.995C57.936 116.07 59.3864 119.036 59.3864 122.727H61.3864ZM42.0795 108.636H19.375V110.636H42.0795V108.636ZM18.375 109.636V162H20.375V109.636H18.375ZM34.5909 150.648V139.602H32.5909V150.648H34.5909ZM33.5909 140.602H40.4432V138.602H33.5909V140.602ZM40.4432 140.602C42.4611 140.602 43.9481 141.081 44.9111 141.862C45.8446 142.619 46.3977 143.748 46.3977 145.33H48.3977C48.3977 143.229 47.6341 141.495 46.1706 140.308C44.7366 139.146 42.7463 138.602 40.4432 138.602V140.602ZM46.3977 145.33C46.3977 146.831 45.9036 147.835 45.0122 148.501C44.0678 149.208 42.5305 149.648 40.2386 149.648V151.648C42.7281 151.648 44.7703 151.18 46.2101 150.103C47.7029 148.986 48.3977 147.331 48.3977 145.33H46.3977ZM40.2386 149.648H33.5909V151.648H40.2386V149.648ZM34.5909 130.807V120.784H32.5909V130.807H34.5909ZM33.5909 121.784H39.625V119.784H33.5909V121.784ZM39.625 121.784C41.233 121.784 42.5308 122.193 43.4024 122.871C44.2458 123.527 44.7614 124.485 44.7614 125.795H46.7614C46.7614 123.884 45.973 122.337 44.6303 121.292C43.3158 120.27 41.5454 119.784 39.625 119.784V121.784ZM44.7614 125.795C44.7614 127.104 44.2477 128.058 43.3857 128.713C42.4917 129.393 41.1418 129.807 39.4205 129.807V131.807C41.432 131.807 43.2527 131.326 44.5959 130.305C45.9711 129.26 46.7614 127.709 46.7614 125.795H44.7614ZM39.4205 129.807H33.5909V131.807H39.4205V129.807ZM105.719 149.318L106.706 149.479L106.894 148.318H105.719V149.318ZM92.8324 149.318V148.318H92.1347L91.8939 148.973L92.8324 149.318ZM80.1506 145.636V144.636H79.1506V145.636H80.1506ZM105.719 145.636V146.636H106.719V145.636H105.719ZM80.1506 137.864L79.1508 137.841L79.1278 138.864H80.1506V137.864ZM92.7301 137.864V138.864H93.7531L93.7299 137.841L92.7301 137.864ZM86.4915 163.716C92.0912 163.716 96.7825 162.375 100.27 159.901C103.771 157.416 105.999 153.829 106.706 149.479L104.732 149.158C104.109 152.99 102.169 156.101 99.1124 158.27C96.0414 160.449 91.7838 161.716 86.4915 161.716V163.716ZM105.719 148.318H92.8324V150.318H105.719V148.318ZM91.8939 148.973C91.2697 150.67 89.4318 151.795 86.7983 151.795V153.795C89.9432 153.795 92.7588 152.415 93.7709 149.663L91.8939 148.973ZM86.7983 151.795C84.9286 151.795 83.539 151.185 82.6169 150.243C81.6905 149.295 81.1506 147.925 81.1506 146.25H79.1506C79.1506 148.359 79.8379 150.262 81.1871 151.641C82.5406 153.025 84.4748 153.795 86.7983 153.795V151.795ZM81.1506 146.25V145.636H79.1506V146.25H81.1506ZM80.1506 146.636H105.719V144.636H80.1506V146.636ZM106.719 145.636V142.364H104.719V145.636H106.719ZM106.719 142.364C106.719 135.906 104.734 130.599 101.115 126.902C97.4943 123.203 92.3356 121.216 86.1847 121.216V123.216C91.8973 123.216 96.5057 125.052 99.6859 128.301C102.868 131.552 104.719 136.318 104.719 142.364H106.719ZM86.1847 121.216C79.8719 121.216 74.6141 123.316 70.9343 127.078C67.2571 130.836 65.2415 136.165 65.2415 142.466H67.2415C67.2415 136.596 69.1123 131.8 72.364 128.476C75.6132 125.155 80.327 123.216 86.1847 123.216V121.216ZM65.2415 142.466C65.2415 149.022 67.2243 154.363 70.9437 158.065C74.6623 161.767 80.0017 163.716 86.4915 163.716V161.716C80.4017 161.716 75.6161 159.894 72.3546 156.647C69.0939 153.402 67.2415 148.617 67.2415 142.466H65.2415ZM81.1503 137.886C81.2126 135.124 83.4827 133.136 86.4915 133.136V131.136C82.5968 131.136 79.2419 133.802 79.1508 137.841L81.1503 137.886ZM86.4915 133.136C89.5208 133.136 91.6675 135.122 91.7304 137.886L93.7299 137.841C93.6393 133.855 90.4679 131.136 86.4915 131.136V133.136ZM92.7301 136.864H80.1506V138.864H92.7301V136.864ZM111.478 162H110.478V163H111.478V162ZM125.592 162V163H126.592V162H125.592ZM138.069 134.795L137.742 135.741L139.069 136.199V134.795H138.069ZM138.069 122.753H139.069V122.006L138.352 121.794L138.069 122.753ZM125.592 130.193V131.193H126.365L126.56 130.444L125.592 130.193ZM125.183 130.193H124.183V131.193H125.183V130.193ZM125.183 122.727H126.183V121.727H125.183V122.727ZM111.478 122.727V121.727H110.478V122.727H111.478ZM111.478 163H125.592V161H111.478V163ZM126.592 162V141.545H124.592V162H126.592ZM126.592 141.545C126.592 139.531 127.28 137.927 128.369 136.829C129.46 135.731 131.012 135.08 132.853 135.08V133.08C130.526 133.08 128.448 133.911 126.95 135.421C125.45 136.931 124.592 139.06 124.592 141.545H126.592ZM132.853 135.08C134.263 135.08 136.488 135.307 137.742 135.741L138.395 133.85C136.837 133.312 134.358 133.08 132.853 133.08V135.08ZM139.069 134.795V122.753H137.069V134.795H139.069ZM138.352 121.794C137.148 121.438 135.825 121.216 134.489 121.216V123.216C135.608 123.216 136.74 123.403 137.786 123.712L138.352 121.794ZM134.489 121.216C132.187 121.216 130.08 121.895 128.354 123.374C126.638 124.845 125.376 127.04 124.624 129.942L126.56 130.444C127.239 127.823 128.329 126.03 129.656 124.893C130.972 123.764 132.598 123.216 134.489 123.216V121.216ZM125.592 129.193H125.183V131.193H125.592V129.193ZM126.183 130.193V122.727H124.183V130.193H126.183ZM125.183 121.727H111.478V123.727H125.183V121.727ZM110.478 122.727V162H112.478V122.727H110.478ZM178.492 149.318L179.479 149.479L179.668 148.318H178.492V149.318ZM165.606 149.318V148.318H164.908L164.667 148.973L165.606 149.318ZM152.924 145.636V144.636H151.924V145.636H152.924ZM178.492 145.636V146.636H179.492V145.636H178.492ZM152.924 137.864L151.924 137.841L151.901 138.864H152.924V137.864ZM165.504 137.864V138.864H166.527L166.503 137.841L165.504 137.864ZM159.265 163.716C164.865 163.716 169.556 162.375 173.043 159.901C176.545 157.416 178.772 153.829 179.479 149.479L177.505 149.158C176.882 152.99 174.942 156.101 171.886 158.27C168.815 160.449 164.557 161.716 159.265 161.716V163.716ZM178.492 148.318H165.606V150.318H178.492V148.318ZM164.667 148.973C164.043 150.67 162.205 151.795 159.572 151.795V153.795C162.717 153.795 165.532 152.415 166.544 149.663L164.667 148.973ZM159.572 151.795C157.702 151.795 156.312 151.185 155.39 150.243C154.464 149.295 153.924 147.925 153.924 146.25H151.924C151.924 148.359 152.611 150.262 153.961 151.641C155.314 153.025 157.248 153.795 159.572 153.795V151.795ZM153.924 146.25V145.636H151.924V146.25H153.924ZM152.924 146.636H178.492V144.636H152.924V146.636ZM179.492 145.636V142.364H177.492V145.636H179.492ZM179.492 142.364C179.492 135.906 177.508 130.599 173.889 126.902C170.268 123.203 165.109 121.216 158.958 121.216V123.216C164.671 123.216 169.279 125.052 172.459 128.301C175.641 131.552 177.492 136.318 177.492 142.364H179.492ZM158.958 121.216C152.645 121.216 147.388 123.316 143.708 127.078C140.031 130.836 138.015 136.165 138.015 142.466H140.015C140.015 136.596 141.886 131.8 145.137 128.476C148.387 125.155 153.1 123.216 158.958 123.216V121.216ZM138.015 142.466C138.015 149.022 139.998 154.363 143.717 158.065C147.436 161.767 152.775 163.716 159.265 163.716V161.716C153.175 161.716 148.39 159.894 145.128 156.647C141.867 153.402 140.015 148.617 140.015 142.466H138.015ZM153.924 137.886C153.986 135.124 156.256 133.136 159.265 133.136V131.136C155.37 131.136 152.015 133.802 151.924 137.841L153.924 137.886ZM159.265 133.136C162.294 133.136 164.441 135.122 164.504 137.886L166.503 137.841C166.413 133.855 163.241 131.136 159.265 131.136V133.136ZM165.504 136.864H152.924V138.864H165.504V136.864ZM184.661 162H183.661V163H184.661V162ZM219.126 162V163H220.126V162H219.126ZM219.126 151.261H220.126V150.261H219.126V151.261ZM202.865 151.261H201.865V152.261H202.865V151.261ZM202.865 151.057L202.081 150.436L201.865 150.709V151.057H202.865ZM218.513 131.318L219.296 131.939L219.513 131.666V131.318H218.513ZM218.513 122.727H219.513V121.727H218.513V122.727ZM185.274 122.727V121.727H184.274V122.727H185.274ZM185.274 133.466H184.274V134.466H185.274V133.466ZM201.842 133.466H202.842V132.466H201.842V133.466ZM201.842 133.67L202.61 134.312L202.842 134.033V133.67H201.842ZM184.661 154.227L183.893 153.586L183.661 153.864V154.227H184.661ZM184.661 163H219.126V161H184.661V163ZM220.126 162V151.261H218.126V162H220.126ZM219.126 150.261H202.865V152.261H219.126V150.261ZM203.865 151.261V151.057H201.865V151.261H203.865ZM203.649 151.678L219.296 131.939L217.729 130.697L202.081 150.436L203.649 151.678ZM219.513 131.318V122.727H217.513V131.318H219.513ZM218.513 121.727H185.274V123.727H218.513V121.727ZM184.274 122.727V133.466H186.274V122.727H184.274ZM185.274 134.466H201.842V132.466H185.274V134.466ZM200.842 133.466V133.67H202.842V133.466H200.842ZM201.075 133.029L183.893 153.586L185.428 154.869L202.61 134.312L201.075 133.029ZM183.661 154.227V162H185.661V154.227H183.661ZM226.931 162H225.931V163H226.931V162ZM241.045 162V163H242.045V162H241.045ZM241.045 122.727H242.045V121.727H241.045V122.727ZM226.931 122.727V121.727H225.931V122.727H226.931ZM226.931 163H241.045V161H226.931V163ZM242.045 162V122.727H240.045V162H242.045ZM241.045 121.727H226.931V123.727H241.045V121.727ZM225.931 122.727V162H227.931V122.727H225.931ZM233.988 119.636C238.302 119.636 241.942 116.37 241.942 112.193H239.942C239.942 115.124 237.344 117.636 233.988 117.636V119.636ZM241.942 112.193C241.942 108.016 238.302 104.75 233.988 104.75V106.75C237.344 106.75 239.942 109.262 239.942 112.193H241.942ZM233.988 104.75C229.674 104.75 226.033 108.016 226.033 112.193H228.033C228.033 109.262 230.632 106.75 233.988 106.75V104.75ZM226.033 112.193C226.033 116.37 229.674 119.636 233.988 119.636V117.636C230.632 117.636 228.033 115.124 228.033 112.193H226.033ZM262.349 139.909L261.349 139.903V139.909H262.349ZM273.702 139.909L272.702 139.903V139.909H273.702ZM273.702 162H272.702V163H273.702V162ZM287.815 162V163H288.815V162H287.815ZM287.815 136.943L286.815 136.94V136.943H287.815ZM262.043 130.193V131.193H262.755L262.988 130.52L262.043 130.193ZM261.634 130.193H260.634V131.193H261.634V130.193ZM261.634 122.727H262.634V121.727H261.634V122.727ZM248.236 122.727V121.727H247.236V122.727H248.236ZM248.236 162H247.236V163H248.236V162ZM262.349 162V163H263.349V162H262.349ZM263.349 139.916C263.361 138.155 263.862 136.858 264.644 136.01C265.417 135.173 266.559 134.67 268.077 134.67V132.67C266.092 132.67 264.383 133.344 263.174 134.654C261.974 135.955 261.363 137.777 261.349 139.903L263.349 139.916ZM268.077 134.67C269.623 134.67 270.745 135.175 271.488 136.001C272.242 136.84 272.713 138.133 272.702 139.903L274.702 139.916C274.716 137.799 274.151 135.972 272.975 134.664C271.787 133.342 270.084 132.67 268.077 132.67V134.67ZM272.702 139.909V162H274.702V139.909H272.702ZM273.702 163H287.815V161H273.702V163ZM288.815 162V136.943H286.815V162H288.815ZM288.815 136.946C288.829 132.466 287.419 128.53 284.837 125.703C282.247 122.867 278.54 121.216 274.111 121.216V123.216C278.017 123.216 281.175 124.659 283.36 127.051C285.553 129.453 286.828 132.88 286.815 136.94L288.815 136.946ZM274.111 121.216C267.965 121.216 262.968 124.45 261.097 129.867L262.988 130.52C264.543 126.016 268.699 123.216 274.111 123.216V121.216ZM262.043 129.193H261.634V131.193H262.043V129.193ZM262.634 130.193V122.727H260.634V130.193H262.634ZM261.634 121.727H248.236V123.727H261.634V121.727ZM247.236 122.727V162H249.236V122.727H247.236ZM248.236 163H262.349V161H248.236V163ZM263.349 162V139.909H261.349V162H263.349Z" fill="#4BCDFE"/>
<g filter="url(#filter0_d)">
<path d="M15.375 70H53.0114V58.5455H29.5909V49.5455H51.1705V38.0909H29.5909V29.0909H53.1136V17.6364H15.375V70ZM99.9482 30.7273H85.1186L78.7777 56.7045H78.3686L72.0277 30.7273H57.1982L70.3913 70H86.755L99.9482 30.7273ZM121.688 85.5455C134.114 85.5455 142.347 79.8693 142.347 69.8977V30.7273H128.233V37.5795H127.926C126.392 33.5909 122.71 30.2159 116.881 30.2159C109.108 30.2159 101.54 36.1477 101.54 50.3636C101.54 63.9659 108.597 69.4886 116.983 69.4886C122.301 69.4886 126.494 67.2386 128.028 63.25H128.438V69.8977C128.438 74.5256 125.753 76.0341 122.097 76.0341C118.849 76.0341 116.472 75.0625 116.062 72.5568H102.46C102.997 80.125 109.875 85.5455 121.688 85.5455ZM122.199 59.4659C118.312 59.4659 116.062 56.1932 116.062 50.3636C116.062 44.5341 118.312 41.0568 122.199 41.0568C126.085 41.0568 128.438 44.5341 128.438 50.3636C128.438 56.0909 126.085 59.4659 122.199 59.4659ZM168.343 70.7159C179.235 70.7159 186.241 65.5 187.57 57.3182H174.684C173.866 59.5426 171.539 60.7955 168.65 60.7955C164.457 60.7955 162.002 58.0341 162.002 54.25V53.6364H187.57V50.3636C187.57 37.8608 179.9 30.2159 168.036 30.2159C155.866 30.2159 148.093 38.2955 148.093 50.4659C148.093 63.1733 155.763 70.7159 168.343 70.7159ZM162.002 45.8636C162.079 42.4631 164.891 40.1364 168.343 40.1364C171.846 40.1364 174.505 42.4886 174.582 45.8636H162.002ZM207.443 47.9091C207.469 44.0227 209.668 41.6705 213.17 41.6705C216.724 41.6705 218.821 44.0227 218.795 47.9091V70H232.909V44.9432C232.935 36.4034 227.54 30.2159 219.205 30.2159C213.426 30.2159 208.849 33.233 207.136 38.1932H206.727V30.7273H193.33V70H207.443V47.9091ZM247.061 84.7273C256.93 84.7273 261.558 79.767 263.732 73.2727L278.05 30.7273H263.22L256.777 57.9318H256.368L250.027 30.7273H235.3L249.107 71.7386L248.8 72.4545C247.854 74.6278 245.118 74.5511 241.641 73.3239L238.572 83.3466C240.771 84.2159 243.814 84.7273 247.061 84.7273ZM15.375 157H40.0227C51.4006 157 58.4318 150.787 58.4318 142.17C58.4318 134.781 52.9858 129.949 46.2614 129.693V129.182C52.321 127.98 56.3864 123.506 56.3864 117.727C56.3864 109.75 50.0455 104.636 38.0795 104.636H15.375V157ZM29.5909 145.648V134.602H36.4432C40.7642 134.602 43.3977 136.648 43.3977 140.33C43.3977 143.832 41.0199 145.648 36.2386 145.648H29.5909ZM29.5909 125.807V115.784H35.625C39.1534 115.784 41.7614 117.574 41.7614 120.795C41.7614 124.017 39.1534 125.807 35.4205 125.807H29.5909ZM82.4915 157.716C93.3835 157.716 100.389 152.5 101.719 144.318H88.8324C88.0142 146.543 85.6875 147.795 82.7983 147.795C78.6051 147.795 76.1506 145.034 76.1506 141.25V140.636H101.719V137.364C101.719 124.861 94.0483 117.216 82.1847 117.216C70.0142 117.216 62.2415 125.295 62.2415 137.466C62.2415 150.173 69.9119 157.716 82.4915 157.716ZM76.1506 132.864C76.2273 129.463 79.0398 127.136 82.4915 127.136C85.9943 127.136 88.6534 129.489 88.7301 132.864H76.1506ZM107.478 157H121.592V136.545C121.592 132.045 124.685 129.08 128.853 129.08C130.31 129.08 132.663 129.31 134.069 129.795V117.753C132.944 117.42 131.717 117.216 130.489 117.216C126.296 117.216 123.023 119.67 121.592 125.193H121.183V117.727H107.478V157ZM155.265 157.716C166.157 157.716 173.163 152.5 174.492 144.318H161.606C160.788 146.543 158.461 147.795 155.572 147.795C151.379 147.795 148.924 145.034 148.924 141.25V140.636H174.492V137.364C174.492 124.861 166.822 117.216 154.958 117.216C142.788 117.216 135.015 125.295 135.015 137.466C135.015 150.173 142.685 157.716 155.265 157.716ZM148.924 132.864C149.001 129.463 151.813 127.136 155.265 127.136C158.768 127.136 161.427 129.489 161.504 132.864H148.924ZM180.661 157H215.126V146.261H198.865V146.057L214.513 126.318V117.727H181.274V128.466H197.842V128.67L180.661 149.227V157ZM222.931 157H237.045V117.727H222.931V157ZM229.988 113.636C233.823 113.636 236.942 110.747 236.942 107.193C236.942 103.639 233.823 100.75 229.988 100.75C226.153 100.75 223.033 103.639 223.033 107.193C223.033 110.747 226.153 113.636 229.988 113.636ZM258.349 134.909C258.375 131.023 260.574 128.67 264.077 128.67C267.631 128.67 269.727 131.023 269.702 134.909V157H283.815V131.943C283.841 123.403 278.446 117.216 270.111 117.216C264.332 117.216 259.756 120.233 258.043 125.193H257.634V117.727H244.236V157H258.349V134.909Z" fill="white" fill-opacity="0.01"/>
</g>
<path d="M15.375 70H53.0114V58.5455H29.5909V49.5455H51.1705V38.0909H29.5909V29.0909H53.1136V17.6364H15.375V70ZM99.9482 30.7273H85.1186L78.7777 56.7045H78.3686L72.0277 30.7273H57.1982L70.3913 70H86.755L99.9482 30.7273ZM121.688 85.5455C134.114 85.5455 142.347 79.8693 142.347 69.8977V30.7273H128.233V37.5795H127.926C126.392 33.5909 122.71 30.2159 116.881 30.2159C109.108 30.2159 101.54 36.1477 101.54 50.3636C101.54 63.9659 108.597 69.4886 116.983 69.4886C122.301 69.4886 126.494 67.2386 128.028 63.25H128.438V69.8977C128.438 74.5256 125.753 76.0341 122.097 76.0341C118.849 76.0341 116.472 75.0625 116.062 72.5568H102.46C102.997 80.125 109.875 85.5455 121.688 85.5455ZM122.199 59.4659C118.312 59.4659 116.062 56.1932 116.062 50.3636C116.062 44.5341 118.312 41.0568 122.199 41.0568C126.085 41.0568 128.438 44.5341 128.438 50.3636C128.438 56.0909 126.085 59.4659 122.199 59.4659ZM168.343 70.7159C179.235 70.7159 186.241 65.5 187.57 57.3182H174.684C173.866 59.5426 171.539 60.7955 168.65 60.7955C164.457 60.7955 162.002 58.0341 162.002 54.25V53.6364H187.57V50.3636C187.57 37.8608 179.9 30.2159 168.036 30.2159C155.866 30.2159 148.093 38.2955 148.093 50.4659C148.093 63.1733 155.763 70.7159 168.343 70.7159ZM162.002 45.8636C162.079 42.4631 164.891 40.1364 168.343 40.1364C171.846 40.1364 174.505 42.4886 174.582 45.8636H162.002ZM207.443 47.9091C207.469 44.0227 209.668 41.6705 213.17 41.6705C216.724 41.6705 218.821 44.0227 218.795 47.9091V70H232.909V44.9432C232.935 36.4034 227.54 30.2159 219.205 30.2159C213.426 30.2159 208.849 33.233 207.136 38.1932H206.727V30.7273H193.33V70H207.443V47.9091ZM247.061 84.7273C256.93 84.7273 261.558 79.767 263.732 73.2727L278.05 30.7273H263.22L256.777 57.9318H256.368L250.027 30.7273H235.3L249.107 71.7386L248.8 72.4545C247.854 74.6278 245.118 74.5511 241.641 73.3239L238.572 83.3466C240.771 84.2159 243.814 84.7273 247.061 84.7273ZM15.375 157H40.0227C51.4006 157 58.4318 150.787 58.4318 142.17C58.4318 134.781 52.9858 129.949 46.2614 129.693V129.182C52.321 127.98 56.3864 123.506 56.3864 117.727C56.3864 109.75 50.0455 104.636 38.0795 104.636H15.375V157ZM29.5909 145.648V134.602H36.4432C40.7642 134.602 43.3977 136.648 43.3977 140.33C43.3977 143.832 41.0199 145.648 36.2386 145.648H29.5909ZM29.5909 125.807V115.784H35.625C39.1534 115.784 41.7614 117.574 41.7614 120.795C41.7614 124.017 39.1534 125.807 35.4205 125.807H29.5909ZM82.4915 157.716C93.3835 157.716 100.389 152.5 101.719 144.318H88.8324C88.0142 146.543 85.6875 147.795 82.7983 147.795C78.6051 147.795 76.1506 145.034 76.1506 141.25V140.636H101.719V137.364C101.719 124.861 94.0483 117.216 82.1847 117.216C70.0142 117.216 62.2415 125.295 62.2415 137.466C62.2415 150.173 69.9119 157.716 82.4915 157.716ZM76.1506 132.864C76.2273 129.463 79.0398 127.136 82.4915 127.136C85.9943 127.136 88.6534 129.489 88.7301 132.864H76.1506ZM107.478 157H121.592V136.545C121.592 132.045 124.685 129.08 128.853 129.08C130.31 129.08 132.663 129.31 134.069 129.795V117.753C132.944 117.42 131.717 117.216 130.489 117.216C126.296 117.216 123.023 119.67 121.592 125.193H121.183V117.727H107.478V157ZM155.265 157.716C166.157 157.716 173.163 152.5 174.492 144.318H161.606C160.788 146.543 158.461 147.795 155.572 147.795C151.379 147.795 148.924 145.034 148.924 141.25V140.636H174.492V137.364C174.492 124.861 166.822 117.216 154.958 117.216C142.788 117.216 135.015 125.295 135.015 137.466C135.015 150.173 142.685 157.716 155.265 157.716ZM148.924 132.864C149.001 129.463 151.813 127.136 155.265 127.136C158.768 127.136 161.427 129.489 161.504 132.864H148.924ZM180.661 157H215.126V146.261H198.865V146.057L214.513 126.318V117.727H181.274V128.466H197.842V128.67L180.661 149.227V157ZM222.931 157H237.045V117.727H222.931V157ZM229.988 113.636C233.823 113.636 236.942 110.747 236.942 107.193C236.942 103.639 233.823 100.75 229.988 100.75C226.153 100.75 223.033 103.639 223.033 107.193C223.033 110.747 226.153 113.636 229.988 113.636ZM258.349 134.909C258.375 131.023 260.574 128.67 264.077 128.67C267.631 128.67 269.727 131.023 269.702 134.909V157H283.815V131.943C283.841 123.403 278.446 117.216 270.111 117.216C264.332 117.216 259.756 120.233 258.043 125.193H257.634V117.727H244.236V157H258.349V134.909Z" fill="white"/>
<defs>
<filter id="filter0_d" x="0.375" y="6.63623" width="298.44" height="170.08" filterUnits="userSpaceOnUse" color-interpolation-filters="sRGB">
<feFlood flood-opacity="0" result="BackgroundImageFix"/>
<feColorMatrix in="SourceAlpha" type="matrix" values="0 0 0 0 0 0 0 0 0 0 0 0 0 0 0 0 0 0 127 0"/>
<feOffset dy="4"/>
<feGaussianBlur stdDeviation="7.5"/>
<feColorMatrix type="matrix" values="0 0 0 0 0.286275 0 0 0 0 0.811765 0 0 0 0 1 0 0 0 1 0"/>
<feBlend mode="normal" in2="BackgroundImageFix" result="effect1_dropShadow"/>
<feBlend mode="normal" in="SourceGraphic" in2="effect1_dropShadow" result="shape"/>
</filter>
</defs>
</svg>
