<svg width="2515" height="178" viewBox="0 0 2515 178" fill="none" xmlns="http://www.w3.org/2000/svg">
<path d="M19.375 74H57.0114V62.5455H33.5909V53.5455H55.1705V42.0909H33.5909V33.0909H57.1136V21.6364H19.375V74ZM103.948 34.7273H89.1186L82.7777 60.7045H82.3686L76.0277 34.7273H61.1982L74.3913 74H90.755L103.948 34.7273ZM125.688 89.5455C138.114 89.5455 146.347 83.8693 146.347 73.8977V34.7273H132.233V41.5795H131.926C130.392 37.5909 126.71 34.2159 120.881 34.2159C113.108 34.2159 105.54 40.1477 105.54 54.3636C105.54 67.9659 112.597 73.4886 120.983 73.4886C126.301 73.4886 130.494 71.2386 132.028 67.25H132.438V73.8977C132.438 78.5256 129.753 80.0341 126.097 80.0341C122.849 80.0341 120.472 79.0625 120.062 76.5568H106.46C106.997 84.125 113.875 89.5455 125.688 89.5455ZM126.199 63.4659C122.312 63.4659 120.062 60.1932 120.062 54.3636C120.062 48.5341 122.312 45.0568 126.199 45.0568C130.085 45.0568 132.438 48.5341 132.438 54.3636C132.438 60.0909 130.085 63.4659 126.199 63.4659ZM172.343 74.7159C183.235 74.7159 190.241 69.5 191.57 61.3182H178.684C177.866 63.5426 175.539 64.7955 172.65 64.7955C168.457 64.7955 166.002 62.0341 166.002 58.25V57.6364H191.57V54.3636C191.57 41.8608 183.9 34.2159 172.036 34.2159C159.866 34.2159 152.093 42.2955 152.093 54.4659C152.093 67.1733 159.763 74.7159 172.343 74.7159ZM166.002 49.8636C166.079 46.4631 168.891 44.1364 172.343 44.1364C175.846 44.1364 178.505 46.4886 178.582 49.8636H166.002ZM211.443 51.9091C211.469 48.0227 213.668 45.6705 217.17 45.6705C220.724 45.6705 222.821 48.0227 222.795 51.9091V74H236.909V48.9432C236.935 40.4034 231.54 34.2159 223.205 34.2159C217.426 34.2159 212.849 37.233 211.136 42.1932H210.727V34.7273H197.33V74H211.443V51.9091ZM251.061 88.7273C260.93 88.7273 265.558 83.767 267.732 77.2727L282.05 34.7273H267.22L260.777 61.9318H260.368L254.027 34.7273H239.3L253.107 75.7386L252.8 76.4545C251.854 78.6278 249.118 78.5511 245.641 77.3239L242.572 87.3466C244.771 88.2159 247.814 88.7273 251.061 88.7273ZM19.375 161H44.0227C55.4006 161 62.4318 154.787 62.4318 146.17C62.4318 138.781 56.9858 133.949 50.2614 133.693V133.182C56.321 131.98 60.3864 127.506 60.3864 121.727C60.3864 113.75 54.0455 108.636 42.0795 108.636H19.375V161ZM33.5909 149.648V138.602H40.4432C44.7642 138.602 47.3977 140.648 47.3977 144.33C47.3977 147.832 45.0199 149.648 40.2386 149.648H33.5909ZM33.5909 129.807V119.784H39.625C43.1534 119.784 45.7614 121.574 45.7614 124.795C45.7614 128.017 43.1534 129.807 39.4205 129.807H33.5909ZM86.4915 161.716C97.3835 161.716 104.389 156.5 105.719 148.318H92.8324C92.0142 150.543 89.6875 151.795 86.7983 151.795C82.6051 151.795 80.1506 149.034 80.1506 145.25V144.636H105.719V141.364C105.719 128.861 98.0483 121.216 86.1847 121.216C74.0142 121.216 66.2415 129.295 66.2415 141.466C66.2415 154.173 73.9119 161.716 86.4915 161.716ZM80.1506 136.864C80.2273 133.463 83.0398 131.136 86.4915 131.136C89.9943 131.136 92.6534 133.489 92.7301 136.864H80.1506ZM111.478 161H125.592V140.545C125.592 136.045 128.685 133.08 132.853 133.08C134.31 133.08 136.663 133.31 138.069 133.795V121.753C136.944 121.42 135.717 121.216 134.489 121.216C130.296 121.216 127.023 123.67 125.592 129.193H125.183V121.727H111.478V161ZM159.265 161.716C170.157 161.716 177.163 156.5 178.492 148.318H165.606C164.788 150.543 162.461 151.795 159.572 151.795C155.379 151.795 152.924 149.034 152.924 145.25V144.636H178.492V141.364C178.492 128.861 170.822 121.216 158.958 121.216C146.788 121.216 139.015 129.295 139.015 141.466C139.015 154.173 146.685 161.716 159.265 161.716ZM152.924 136.864C153.001 133.463 155.813 131.136 159.265 131.136C162.768 131.136 165.427 133.489 165.504 136.864H152.924ZM184.661 161H219.126V150.261H202.865V150.057L218.513 130.318V121.727H185.274V132.466H201.842V132.67L184.661 153.227V161ZM226.931 161H241.045V121.727H226.931V161ZM233.988 117.636C237.823 117.636 240.942 114.747 240.942 111.193C240.942 107.639 237.823 104.75 233.988 104.75C230.153 104.75 227.033 107.639 227.033 111.193C227.033 114.747 230.153 117.636 233.988 117.636ZM262.349 138.909C262.375 135.023 264.574 132.67 268.077 132.67C271.631 132.67 273.727 135.023 273.702 138.909V161H287.815V135.943C287.841 127.403 282.446 121.216 274.111 121.216C268.332 121.216 263.756 124.233 262.043 129.193H261.634V121.727H248.236V161H262.349V138.909Z" fill="#672D91"/>
<path d="M19.375 74H18.375V75H19.375V74ZM57.0114 74V75H58.0114V74H57.0114ZM57.0114 62.5455H58.0114V61.5455H57.0114V62.5455ZM33.5909 62.5455H32.5909V63.5455H33.5909V62.5455ZM33.5909 53.5455V52.5455H32.5909V53.5455H33.5909ZM55.1705 53.5455V54.5455H56.1705V53.5455H55.1705ZM55.1705 42.0909H56.1705V41.0909H55.1705V42.0909ZM33.5909 42.0909H32.5909V43.0909H33.5909V42.0909ZM33.5909 33.0909V32.0909H32.5909V33.0909H33.5909ZM57.1136 33.0909V34.0909H58.1136V33.0909H57.1136ZM57.1136 21.6364H58.1136V20.6364H57.1136V21.6364ZM19.375 21.6364V20.6364H18.375V21.6364H19.375ZM19.375 75H57.0114V73H19.375V75ZM58.0114 74V62.5455H56.0114V74H58.0114ZM57.0114 61.5455H33.5909V63.5455H57.0114V61.5455ZM34.5909 62.5455V53.5455H32.5909V62.5455H34.5909ZM33.5909 54.5455H55.1705V52.5455H33.5909V54.5455ZM56.1705 53.5455V42.0909H54.1705V53.5455H56.1705ZM55.1705 41.0909H33.5909V43.0909H55.1705V41.0909ZM34.5909 42.0909V33.0909H32.5909V42.0909H34.5909ZM33.5909 34.0909H57.1136V32.0909H33.5909V34.0909ZM58.1136 33.0909V21.6364H56.1136V33.0909H58.1136ZM57.1136 20.6364H19.375V22.6364H57.1136V20.6364ZM18.375 21.6364V74H20.375V21.6364H18.375ZM103.948 34.7273L104.896 35.0457L105.339 33.7273H103.948V34.7273ZM89.1186 34.7273V33.7273H88.3333L88.1471 34.4901L89.1186 34.7273ZM82.7777 60.7045V61.7045H83.563L83.7492 60.9417L82.7777 60.7045ZM82.3686 60.7045L81.3971 60.9417L81.5833 61.7045H82.3686V60.7045ZM76.0277 34.7273L76.9992 34.4901L76.813 33.7273H76.0277V34.7273ZM61.1982 34.7273V33.7273H59.8073L60.2502 35.0457L61.1982 34.7273ZM74.3913 74L73.4434 74.3185L73.6724 75H74.3913V74ZM90.755 74V75H91.474L91.7029 74.3185L90.755 74ZM103.948 33.7273H89.1186V35.7273H103.948V33.7273ZM88.1471 34.4901L81.8062 60.4674L83.7492 60.9417L90.0901 34.9644L88.1471 34.4901ZM82.7777 59.7045H82.3686V61.7045H82.7777V59.7045ZM83.3401 60.4674L76.9992 34.4901L75.0562 34.9644L81.3971 60.9417L83.3401 60.4674ZM76.0277 33.7273H61.1982V35.7273H76.0277V33.7273ZM60.2502 35.0457L73.4434 74.3185L75.3393 73.6815L62.1461 34.4088L60.2502 35.0457ZM74.3913 75H90.755V73H74.3913V75ZM91.7029 74.3185L104.896 35.0457L103 34.4088L89.807 73.6815L91.7029 74.3185ZM146.347 34.7273H147.347V33.7273H146.347V34.7273ZM132.233 34.7273V33.7273H131.233V34.7273H132.233ZM132.233 41.5795V42.5795H133.233V41.5795H132.233ZM131.926 41.5795L130.993 41.9385L131.239 42.5795H131.926V41.5795ZM132.028 67.25V66.25H131.342L131.095 66.891L132.028 67.25ZM132.438 67.25H133.438V66.25H132.438V67.25ZM120.062 76.5568L121.049 76.3957L120.912 75.5568H120.062V76.5568ZM106.46 76.5568V75.5568H105.387L105.463 76.6276L106.46 76.5568ZM125.688 90.5455C132.037 90.5455 137.434 89.0974 141.271 86.2655C145.143 83.4077 147.347 79.1945 147.347 73.8977H145.347C145.347 78.5726 143.434 82.1832 140.083 84.6563C136.697 87.1555 131.764 88.5455 125.688 88.5455V90.5455ZM147.347 73.8977V34.7273H145.347V73.8977H147.347ZM146.347 33.7273H132.233V35.7273H146.347V33.7273ZM131.233 34.7273V41.5795H133.233V34.7273H131.233ZM132.233 40.5795H131.926V42.5795H132.233V40.5795ZM132.859 41.2206C131.194 36.8892 127.169 33.2159 120.881 33.2159V35.2159C126.252 35.2159 129.591 38.2926 130.993 41.9385L132.859 41.2206ZM120.881 33.2159C116.733 33.2159 112.614 34.8039 109.544 38.2988C106.48 41.7875 104.54 47.0823 104.54 54.3636H106.54C106.54 47.4291 108.384 42.65 111.047 39.6188C113.704 36.5938 117.256 35.2159 120.881 35.2159V33.2159ZM104.54 54.3636C104.54 61.3305 106.348 66.3823 109.378 69.7012C112.415 73.0286 116.566 74.4886 120.983 74.4886V72.4886C117.013 72.4886 113.443 71.1873 110.855 68.3528C108.26 65.5098 106.54 60.999 106.54 54.3636H104.54ZM120.983 74.4886C126.553 74.4886 131.229 72.1152 132.962 67.609L131.095 66.891C129.76 70.362 126.049 72.4886 120.983 72.4886V74.4886ZM132.028 68.25H132.438V66.25H132.028V68.25ZM131.438 67.25V73.8977H133.438V67.25H131.438ZM131.438 73.8977C131.438 76.0154 130.831 77.2279 129.992 77.9383C129.121 78.6761 127.813 79.0341 126.097 79.0341V81.0341C128.037 81.0341 129.899 80.6378 131.284 79.4644C132.702 78.2636 133.438 76.4079 133.438 73.8977H131.438ZM126.097 79.0341C124.551 79.0341 123.33 78.7993 122.483 78.3511C121.683 77.9283 121.199 77.313 121.049 76.3957L119.076 76.7179C119.335 78.3063 120.244 79.4296 121.548 80.1191C122.803 80.7831 124.395 81.0341 126.097 81.0341V79.0341ZM120.062 75.5568H106.46V77.5568H120.062V75.5568ZM105.463 76.6276C105.753 80.7235 107.771 84.2396 111.269 86.7064C114.747 89.1586 119.639 90.5455 125.688 90.5455V88.5455C119.924 88.5455 115.471 87.222 112.422 85.072C109.394 82.9366 107.704 79.9584 107.458 76.4861L105.463 76.6276ZM126.199 62.4659C124.581 62.4659 123.36 61.8073 122.501 60.5399C121.608 59.2221 121.062 57.1722 121.062 54.3636H119.062C119.062 57.3846 119.642 59.8858 120.845 61.6618C122.083 63.4881 123.93 64.4659 126.199 64.4659V62.4659ZM121.062 54.3636C121.062 51.5561 121.608 49.4473 122.509 48.0727C123.38 46.7459 124.605 46.0568 126.199 46.0568V44.0568C123.906 44.0568 122.063 45.1064 120.837 46.9756C119.642 48.797 119.062 51.3416 119.062 54.3636H121.062ZM126.199 46.0568C127.796 46.0568 129.05 46.7496 129.946 48.0819C130.87 49.457 131.438 51.5638 131.438 54.3636H133.438C133.438 51.3339 132.829 48.7873 131.606 46.9664C130.353 45.1027 128.488 44.0568 126.199 44.0568V46.0568ZM131.438 54.3636C131.438 57.1097 130.871 59.161 129.952 60.4954C129.062 61.7875 127.809 62.4659 126.199 62.4659V64.4659C128.475 64.4659 130.341 63.4568 131.599 61.6296C132.828 59.8447 133.438 57.3449 133.438 54.3636H131.438ZM191.57 61.3182L192.557 61.4786L192.746 60.3182H191.57V61.3182ZM178.684 61.3182V60.3182H177.986L177.745 60.973L178.684 61.3182ZM166.002 57.6364V56.6364H165.002V57.6364H166.002ZM191.57 57.6364V58.6364H192.57V57.6364H191.57ZM166.002 49.8636L165.002 49.8411L164.979 50.8636H166.002V49.8636ZM178.582 49.8636V50.8636H179.605L179.581 49.8409L178.582 49.8636ZM172.343 75.7159C177.943 75.7159 182.634 74.3752 186.121 71.9008C189.623 69.4162 191.85 65.8287 192.557 61.4786L190.583 61.1578C189.961 64.9895 188.021 68.1008 184.964 70.2697C181.893 72.4487 177.635 73.7159 172.343 73.7159V75.7159ZM191.57 60.3182H178.684V62.3182H191.57V60.3182ZM177.745 60.973C177.121 62.67 175.283 63.7955 172.65 63.7955V65.7955C175.795 65.7955 178.61 64.4152 179.622 61.6634L177.745 60.973ZM172.65 63.7955C170.78 63.7955 169.391 63.1854 168.468 62.2426C167.542 61.2953 167.002 59.9247 167.002 58.25H165.002C165.002 60.3594 165.689 62.2615 167.039 63.641C168.392 65.0249 170.326 65.7955 172.65 65.7955V63.7955ZM167.002 58.25V57.6364H165.002V58.25H167.002ZM166.002 58.6364H191.57V56.6364H166.002V58.6364ZM192.57 57.6364V54.3636H190.57V57.6364H192.57ZM192.57 54.3636C192.57 47.9063 190.586 42.599 186.967 38.9017C183.346 35.2026 178.187 33.2159 172.036 33.2159V35.2159C177.749 35.2159 182.357 37.0517 185.538 40.3007C188.72 43.5516 190.57 48.3181 190.57 54.3636H192.57ZM172.036 33.2159C165.723 33.2159 160.466 35.3164 156.786 39.0777C153.109 42.8364 151.093 48.1655 151.093 54.4659H153.093C153.093 48.5959 154.964 43.8 158.216 40.4763C161.465 37.1552 166.179 35.2159 172.036 35.2159V33.2159ZM151.093 54.4659C151.093 61.0219 153.076 66.3626 156.795 70.0649C160.514 73.7665 165.853 75.7159 172.343 75.7159V73.7159C166.253 73.7159 161.468 71.894 158.206 68.6475C154.945 65.4016 153.093 60.6173 153.093 54.4659H151.093ZM167.002 49.8862C167.064 47.1242 169.334 45.1364 172.343 45.1364V43.1364C168.448 43.1364 165.093 45.8019 165.002 49.8411L167.002 49.8862ZM172.343 45.1364C175.372 45.1364 177.519 47.1219 177.582 49.8864L179.581 49.8409C179.491 45.8553 176.319 43.1364 172.343 43.1364V45.1364ZM178.582 48.8636H166.002V50.8636H178.582V48.8636ZM211.443 51.9091L210.443 51.9025V51.9091H211.443ZM222.795 51.9091L221.795 51.9025V51.9091H222.795ZM222.795 74H221.795V75H222.795V74ZM236.909 74V75H237.909V74H236.909ZM236.909 48.9432L235.909 48.9402V48.9432H236.909ZM211.136 42.1932V43.1932H211.849L212.082 42.5196L211.136 42.1932ZM210.727 42.1932H209.727V43.1932H210.727V42.1932ZM210.727 34.7273H211.727V33.7273H210.727V34.7273ZM197.33 34.7273V33.7273H196.33V34.7273H197.33ZM197.33 74H196.33V75H197.33V74ZM211.443 74V75H212.443V74H211.443ZM212.443 51.9157C212.455 50.1553 212.956 48.8579 213.738 48.0105C214.51 47.1731 215.653 46.6705 217.17 46.6705V44.6705C215.186 44.6705 213.477 45.3439 212.268 46.6543C211.068 47.9546 210.457 49.7765 210.443 51.9025L212.443 51.9157ZM217.17 46.6705C218.717 46.6705 219.839 47.1748 220.582 48.0009C221.336 48.8402 221.807 50.1331 221.795 51.9025L223.795 51.9157C223.809 49.7987 223.245 47.9723 222.069 46.6639C220.881 45.3423 219.178 44.6705 217.17 44.6705V46.6705ZM221.795 51.9091V74H223.795V51.9091H221.795ZM222.795 75H236.909V73H222.795V75ZM237.909 74V48.9432H235.909V74H237.909ZM237.909 48.9462C237.923 44.4662 236.512 40.53 233.931 37.7028C231.341 34.867 227.634 33.2159 223.205 33.2159V35.2159C227.111 35.2159 230.269 36.6586 232.454 39.0515C234.647 41.4529 235.921 44.8804 235.909 48.9402L237.909 48.9462ZM223.205 33.2159C217.059 33.2159 212.062 36.45 210.191 41.8667L212.082 42.5196C213.637 38.0159 217.793 35.2159 223.205 35.2159V33.2159ZM211.136 41.1932H210.727V43.1932H211.136V41.1932ZM211.727 42.1932V34.7273H209.727V42.1932H211.727ZM210.727 33.7273H197.33V35.7273H210.727V33.7273ZM196.33 34.7273V74H198.33V34.7273H196.33ZM197.33 75H211.443V73H197.33V75ZM212.443 74V51.9091H210.443V74H212.443ZM267.732 77.2727L266.784 76.9538L266.783 76.9554L267.732 77.2727ZM282.05 34.7273L282.997 35.0462L283.441 33.7273H282.05V34.7273ZM267.22 34.7273V33.7273H266.429L266.247 34.4968L267.22 34.7273ZM260.777 61.9318V62.9318H261.568L261.75 62.1623L260.777 61.9318ZM260.368 61.9318L259.394 62.1588L259.574 62.9318H260.368V61.9318ZM254.027 34.7273L255.001 34.5003L254.821 33.7273H254.027V34.7273ZM239.3 34.7273V33.7273H237.908L238.352 35.0463L239.3 34.7273ZM253.107 75.7386L254.026 76.1326L254.176 75.7815L254.054 75.4196L253.107 75.7386ZM252.8 76.4545L253.717 76.8537L253.719 76.8485L252.8 76.4545ZM245.641 77.3239L245.973 76.3809L244.99 76.0337L244.684 77.0312L245.641 77.3239ZM242.572 87.3466L241.616 87.0539L241.346 87.937L242.205 88.2766L242.572 87.3466ZM251.061 89.7273C256.169 89.7273 260.021 88.4403 262.893 86.2274C265.757 84.0202 267.551 80.9642 268.68 77.5901L266.783 76.9554C265.739 80.0756 264.133 82.7469 261.672 84.6433C259.219 86.5341 255.822 87.7273 251.061 87.7273V89.7273ZM268.679 77.5917L282.997 35.0462L281.102 34.4083L266.784 76.9538L268.679 77.5917ZM282.05 33.7273H267.22V35.7273H282.05V33.7273ZM266.247 34.4968L259.804 61.7014L261.75 62.1623L268.193 34.9577L266.247 34.4968ZM260.777 60.9318H260.368V62.9318H260.777V60.9318ZM261.342 61.7048L255.001 34.5003L253.053 34.9543L259.394 62.1588L261.342 61.7048ZM254.027 33.7273H239.3V35.7273H254.027V33.7273ZM238.352 35.0463L252.159 76.0577L254.054 75.4196L240.247 34.4082L238.352 35.0463ZM252.187 75.3447L251.881 76.0606L253.719 76.8485L254.026 76.1326L252.187 75.3447ZM251.883 76.0554C251.592 76.7243 251.053 77.0904 250.09 77.1676C249.062 77.2499 247.667 76.9788 245.973 76.3809L245.308 78.2669C247.091 78.8962 248.803 79.2771 250.249 79.1612C251.759 79.0403 253.062 78.358 253.717 76.8537L251.883 76.0554ZM244.684 77.0312L241.616 87.0539L243.529 87.6393L246.597 77.6166L244.684 77.0312ZM242.205 88.2766C244.551 89.2041 247.725 89.7273 251.061 89.7273V87.7273C247.903 87.7273 244.992 87.2278 242.94 86.4166L242.205 88.2766ZM19.375 161H18.375V162H19.375V161ZM50.2614 133.693H49.2614V134.656L50.2234 134.692L50.2614 133.693ZM50.2614 133.182L50.0668 132.201L49.2614 132.361V133.182H50.2614ZM19.375 108.636V107.636H18.375V108.636H19.375ZM33.5909 149.648H32.5909V150.648H33.5909V149.648ZM33.5909 138.602V137.602H32.5909V138.602H33.5909ZM33.5909 129.807H32.5909V130.807H33.5909V129.807ZM33.5909 119.784V118.784H32.5909V119.784H33.5909ZM19.375 162H44.0227V160H19.375V162ZM44.0227 162C49.8874 162 54.7325 160.398 58.1313 157.587C61.5449 154.764 63.4318 150.772 63.4318 146.17H61.4318C61.4318 150.186 59.8031 153.609 56.8566 156.046C53.8953 158.495 49.5359 160 44.0227 160V162ZM63.4318 146.17C63.4318 138.193 57.5088 132.968 50.2994 132.694L50.2234 134.692C56.4628 134.93 61.4318 139.369 61.4318 146.17H63.4318ZM51.2614 133.693V133.182H49.2614V133.693H51.2614ZM50.4559 134.163C56.914 132.882 61.3864 128.051 61.3864 121.727H59.3864C59.3864 126.961 55.7281 131.078 50.0668 132.201L50.4559 134.163ZM61.3864 121.727C61.3864 117.441 59.6663 113.862 56.3143 111.386C53.0009 108.939 48.1865 107.636 42.0795 107.636V109.636C47.9385 109.636 52.2775 110.891 55.1261 112.995C57.936 115.07 59.3864 118.036 59.3864 121.727H61.3864ZM42.0795 107.636H19.375V109.636H42.0795V107.636ZM18.375 108.636V161H20.375V108.636H18.375ZM34.5909 149.648V138.602H32.5909V149.648H34.5909ZM33.5909 139.602H40.4432V137.602H33.5909V139.602ZM40.4432 139.602C42.4611 139.602 43.9481 140.081 44.9111 140.862C45.8446 141.619 46.3977 142.748 46.3977 144.33H48.3977C48.3977 142.229 47.6341 140.495 46.1706 139.308C44.7366 138.146 42.7463 137.602 40.4432 137.602V139.602ZM46.3977 144.33C46.3977 145.831 45.9036 146.835 45.0122 147.501C44.0678 148.208 42.5305 148.648 40.2386 148.648V150.648C42.7281 150.648 44.7703 150.18 46.2101 149.103C47.7029 147.986 48.3977 146.331 48.3977 144.33H46.3977ZM40.2386 148.648H33.5909V150.648H40.2386V148.648ZM34.5909 129.807V119.784H32.5909V129.807H34.5909ZM33.5909 120.784H39.625V118.784H33.5909V120.784ZM39.625 120.784C41.233 120.784 42.5308 121.193 43.4024 121.871C44.2458 122.527 44.7614 123.485 44.7614 124.795H46.7614C46.7614 122.884 45.973 121.337 44.6303 120.292C43.3158 119.27 41.5454 118.784 39.625 118.784V120.784ZM44.7614 124.795C44.7614 126.104 44.2477 127.058 43.3857 127.713C42.4917 128.393 41.1418 128.807 39.4205 128.807V130.807C41.432 130.807 43.2527 130.326 44.5958 129.305C45.9711 128.26 46.7614 126.709 46.7614 124.795H44.7614ZM39.4205 128.807H33.5909V130.807H39.4205V128.807ZM105.719 148.318L106.706 148.479L106.894 147.318H105.719V148.318ZM92.8324 148.318V147.318H92.1347L91.8939 147.973L92.8324 148.318ZM80.1506 144.636V143.636H79.1506V144.636H80.1506ZM105.719 144.636V145.636H106.719V144.636H105.719ZM80.1506 136.864L79.1508 136.841L79.1278 137.864H80.1506V136.864ZM92.7301 136.864V137.864H93.7531L93.7299 136.841L92.7301 136.864ZM86.4915 162.716C92.0912 162.716 96.7825 161.375 100.27 158.901C103.771 156.416 105.999 152.829 106.706 148.479L104.732 148.158C104.109 151.99 102.169 155.101 99.1124 157.27C96.0414 159.449 91.7838 160.716 86.4915 160.716V162.716ZM105.719 147.318H92.8324V149.318H105.719V147.318ZM91.8939 147.973C91.2697 149.67 89.4318 150.795 86.7983 150.795V152.795C89.9432 152.795 92.7588 151.415 93.7709 148.663L91.8939 147.973ZM86.7983 150.795C84.9286 150.795 83.539 150.185 82.6169 149.243C81.6905 148.295 81.1506 146.925 81.1506 145.25H79.1506C79.1506 147.359 79.8379 149.262 81.1871 150.641C82.5406 152.025 84.4748 152.795 86.7983 152.795V150.795ZM81.1506 145.25V144.636H79.1506V145.25H81.1506ZM80.1506 145.636H105.719V143.636H80.1506V145.636ZM106.719 144.636V141.364H104.719V144.636H106.719ZM106.719 141.364C106.719 134.906 104.734 129.599 101.115 125.902C97.4943 122.203 92.3356 120.216 86.1847 120.216V122.216C91.8973 122.216 96.5057 124.052 99.6859 127.301C102.868 130.552 104.719 135.318 104.719 141.364H106.719ZM86.1847 120.216C79.8719 120.216 74.6141 122.316 70.9343 126.078C67.2571 129.836 65.2415 135.165 65.2415 141.466H67.2415C67.2415 135.596 69.1123 130.8 72.364 127.476C75.6132 124.155 80.327 122.216 86.1847 122.216V120.216ZM65.2415 141.466C65.2415 148.022 67.2243 153.363 70.9437 157.065C74.6623 160.766 80.0017 162.716 86.4915 162.716V160.716C80.4017 160.716 75.6161 158.894 72.3546 155.647C69.0939 152.402 67.2415 147.617 67.2415 141.466H65.2415ZM81.1503 136.886C81.2126 134.124 83.4827 132.136 86.4915 132.136V130.136C82.5968 130.136 79.2419 132.802 79.1508 136.841L81.1503 136.886ZM86.4915 132.136C89.5208 132.136 91.6675 134.122 91.7304 136.886L93.7299 136.841C93.6393 132.855 90.4679 130.136 86.4915 130.136V132.136ZM92.7301 135.864H80.1506V137.864H92.7301V135.864ZM111.478 161H110.478V162H111.478V161ZM125.592 161V162H126.592V161H125.592ZM138.069 133.795L137.742 134.741L139.069 135.199V133.795H138.069ZM138.069 121.753H139.069V121.006L138.352 120.794L138.069 121.753ZM125.592 129.193V130.193H126.365L126.56 129.444L125.592 129.193ZM125.183 129.193H124.183V130.193H125.183V129.193ZM125.183 121.727H126.183V120.727H125.183V121.727ZM111.478 121.727V120.727H110.478V121.727H111.478ZM111.478 162H125.592V160H111.478V162ZM126.592 161V140.545H124.592V161H126.592ZM126.592 140.545C126.592 138.531 127.28 136.927 128.369 135.829C129.46 134.731 131.012 134.08 132.853 134.08V132.08C130.526 132.08 128.448 132.911 126.95 134.421C125.45 135.931 124.592 138.06 124.592 140.545H126.592ZM132.853 134.08C134.263 134.08 136.488 134.307 137.742 134.741L138.395 132.85C136.837 132.312 134.358 132.08 132.853 132.08V134.08ZM139.069 133.795V121.753H137.069V133.795H139.069ZM138.352 120.794C137.148 120.438 135.825 120.216 134.489 120.216V122.216C135.608 122.216 136.74 122.403 137.786 122.712L138.352 120.794ZM134.489 120.216C132.187 120.216 130.08 120.895 128.354 122.374C126.638 123.845 125.376 126.04 124.624 128.942L126.56 129.444C127.239 126.823 128.329 125.03 129.656 123.893C130.972 122.764 132.598 122.216 134.489 122.216V120.216ZM125.592 128.193H125.183V130.193H125.592V128.193ZM126.183 129.193V121.727H124.183V129.193H126.183ZM125.183 120.727H111.478V122.727H125.183V120.727ZM110.478 121.727V161H112.478V121.727H110.478ZM178.492 148.318L179.479 148.479L179.668 147.318H178.492V148.318ZM165.606 148.318V147.318H164.908L164.667 147.973L165.606 148.318ZM152.924 144.636V143.636H151.924V144.636H152.924ZM178.492 144.636V145.636H179.492V144.636H178.492ZM152.924 136.864L151.924 136.841L151.901 137.864H152.924V136.864ZM165.504 136.864V137.864H166.527L166.503 136.841L165.504 136.864ZM159.265 162.716C164.865 162.716 169.556 161.375 173.043 158.901C176.545 156.416 178.772 152.829 179.479 148.479L177.505 148.158C176.882 151.99 174.942 155.101 171.886 157.27C168.815 159.449 164.557 160.716 159.265 160.716V162.716ZM178.492 147.318H165.606V149.318H178.492V147.318ZM164.667 147.973C164.043 149.67 162.205 150.795 159.572 150.795V152.795C162.717 152.795 165.532 151.415 166.544 148.663L164.667 147.973ZM159.572 150.795C157.702 150.795 156.312 150.185 155.39 149.243C154.464 148.295 153.924 146.925 153.924 145.25H151.924C151.924 147.359 152.611 149.262 153.961 150.641C155.314 152.025 157.248 152.795 159.572 152.795V150.795ZM153.924 145.25V144.636H151.924V145.25H153.924ZM152.924 145.636H178.492V143.636H152.924V145.636ZM179.492 144.636V141.364H177.492V144.636H179.492ZM179.492 141.364C179.492 134.906 177.508 129.599 173.889 125.902C170.268 122.203 165.109 120.216 158.958 120.216V122.216C164.671 122.216 169.279 124.052 172.459 127.301C175.641 130.552 177.492 135.318 177.492 141.364H179.492ZM158.958 120.216C152.645 120.216 147.388 122.316 143.708 126.078C140.031 129.836 138.015 135.165 138.015 141.466H140.015C140.015 135.596 141.886 130.8 145.137 127.476C148.387 124.155 153.1 122.216 158.958 122.216V120.216ZM138.015 141.466C138.015 148.022 139.998 153.363 143.717 157.065C147.436 160.766 152.775 162.716 159.265 162.716V160.716C153.175 160.716 148.39 158.894 145.128 155.647C141.867 152.402 140.015 147.617 140.015 141.466H138.015ZM153.924 136.886C153.986 134.124 156.256 132.136 159.265 132.136V130.136C155.37 130.136 152.015 132.802 151.924 136.841L153.924 136.886ZM159.265 132.136C162.294 132.136 164.441 134.122 164.504 136.886L166.503 136.841C166.413 132.855 163.241 130.136 159.265 130.136V132.136ZM165.504 135.864H152.924V137.864H165.504V135.864ZM184.661 161H183.661V162H184.661V161ZM219.126 161V162H220.126V161H219.126ZM219.126 150.261H220.126V149.261H219.126V150.261ZM202.865 150.261H201.865V151.261H202.865V150.261ZM202.865 150.057L202.081 149.436L201.865 149.709V150.057H202.865ZM218.513 130.318L219.296 130.939L219.513 130.666V130.318H218.513ZM218.513 121.727H219.513V120.727H218.513V121.727ZM185.274 121.727V120.727H184.274V121.727H185.274ZM185.274 132.466H184.274V133.466H185.274V132.466ZM201.842 132.466H202.842V131.466H201.842V132.466ZM201.842 132.67L202.61 133.312L202.842 133.033V132.67H201.842ZM184.661 153.227L183.893 152.586L183.661 152.864V153.227H184.661ZM184.661 162H219.126V160H184.661V162ZM220.126 161V150.261H218.126V161H220.126ZM219.126 149.261H202.865V151.261H219.126V149.261ZM203.865 150.261V150.057H201.865V150.261H203.865ZM203.649 150.678L219.296 130.939L217.729 129.697L202.081 149.436L203.649 150.678ZM219.513 130.318V121.727H217.513V130.318H219.513ZM218.513 120.727H185.274V122.727H218.513V120.727ZM184.274 121.727V132.466H186.274V121.727H184.274ZM185.274 133.466H201.842V131.466H185.274V133.466ZM200.842 132.466V132.67H202.842V132.466H200.842ZM201.075 132.029L183.893 152.586L185.428 153.869L202.61 133.312L201.075 132.029ZM183.661 153.227V161H185.661V153.227H183.661ZM226.931 161H225.931V162H226.931V161ZM241.045 161V162H242.045V161H241.045ZM241.045 121.727H242.045V120.727H241.045V121.727ZM226.931 121.727V120.727H225.931V121.727H226.931ZM226.931 162H241.045V160H226.931V162ZM242.045 161V121.727H240.045V161H242.045ZM241.045 120.727H226.931V122.727H241.045V120.727ZM225.931 121.727V161H227.931V121.727H225.931ZM233.988 118.636C238.302 118.636 241.942 115.37 241.942 111.193H239.942C239.942 114.124 237.344 116.636 233.988 116.636V118.636ZM241.942 111.193C241.942 107.016 238.302 103.75 233.988 103.75V105.75C237.344 105.75 239.942 108.262 239.942 111.193H241.942ZM233.988 103.75C229.674 103.75 226.033 107.016 226.033 111.193H228.033C228.033 108.262 230.632 105.75 233.988 105.75V103.75ZM226.033 111.193C226.033 115.37 229.674 118.636 233.988 118.636V116.636C230.632 116.636 228.033 114.124 228.033 111.193H226.033ZM262.349 138.909L261.349 138.903V138.909H262.349ZM273.702 138.909L272.702 138.903V138.909H273.702ZM273.702 161H272.702V162H273.702V161ZM287.815 161V162H288.815V161H287.815ZM287.815 135.943L286.815 135.94V135.943H287.815ZM262.043 129.193V130.193H262.755L262.988 129.52L262.043 129.193ZM261.634 129.193H260.634V130.193H261.634V129.193ZM261.634 121.727H262.634V120.727H261.634V121.727ZM248.236 121.727V120.727H247.236V121.727H248.236ZM248.236 161H247.236V162H248.236V161ZM262.349 161V162H263.349V161H262.349ZM263.349 138.916C263.361 137.155 263.862 135.858 264.644 135.01C265.417 134.173 266.559 133.67 268.077 133.67V131.67C266.092 131.67 264.383 132.344 263.174 133.654C261.974 134.955 261.363 136.777 261.349 138.903L263.349 138.916ZM268.077 133.67C269.623 133.67 270.745 134.175 271.488 135.001C272.242 135.84 272.713 137.133 272.702 138.903L274.702 138.916C274.716 136.799 274.151 134.972 272.975 133.664C271.787 132.342 270.084 131.67 268.077 131.67V133.67ZM272.702 138.909V161H274.702V138.909H272.702ZM273.702 162H287.815V160H273.702V162ZM288.815 161V135.943H286.815V161H288.815ZM288.815 135.946C288.829 131.466 287.419 127.53 284.837 124.703C282.247 121.867 278.54 120.216 274.111 120.216V122.216C278.017 122.216 281.175 123.659 283.36 126.051C285.553 128.453 286.828 131.88 286.815 135.94L288.815 135.946ZM274.111 120.216C267.965 120.216 262.968 123.45 261.097 128.867L262.988 129.52C264.543 125.016 268.699 122.216 274.111 122.216V120.216ZM262.043 128.193H261.634V130.193H262.043V128.193ZM262.634 129.193V121.727H260.634V129.193H262.634ZM261.634 120.727H248.236V122.727H261.634V120.727ZM247.236 121.727V161H249.236V121.727H247.236ZM248.236 162H262.349V160H248.236V162ZM263.349 161V138.909H261.349V161H263.349Z" fill="#4BCDFE"/>
<g filter="url(#filter0_d)">
<path d="M15.375 70H53.0114V58.5455H29.5909V49.5455H51.1705V38.0909H29.5909V29.0909H53.1136V17.6364H15.375V70ZM99.9482 30.7273H85.1186L78.7777 56.7045H78.3686L72.0277 30.7273H57.1982L70.3913 70H86.755L99.9482 30.7273ZM121.688 85.5455C134.114 85.5455 142.347 79.8693 142.347 69.8977V30.7273H128.233V37.5795H127.926C126.392 33.5909 122.71 30.2159 116.881 30.2159C109.108 30.2159 101.54 36.1477 101.54 50.3636C101.54 63.9659 108.597 69.4886 116.983 69.4886C122.301 69.4886 126.494 67.2386 128.028 63.25H128.438V69.8977C128.438 74.5256 125.753 76.0341 122.097 76.0341C118.849 76.0341 116.472 75.0625 116.062 72.5568H102.46C102.997 80.125 109.875 85.5455 121.688 85.5455ZM122.199 59.4659C118.312 59.4659 116.062 56.1932 116.062 50.3636C116.062 44.5341 118.312 41.0568 122.199 41.0568C126.085 41.0568 128.438 44.5341 128.438 50.3636C128.438 56.0909 126.085 59.4659 122.199 59.4659ZM168.343 70.7159C179.235 70.7159 186.241 65.5 187.57 57.3182H174.684C173.866 59.5426 171.539 60.7955 168.65 60.7955C164.457 60.7955 162.002 58.0341 162.002 54.25V53.6364H187.57V50.3636C187.57 37.8608 179.9 30.2159 168.036 30.2159C155.866 30.2159 148.093 38.2955 148.093 50.4659C148.093 63.1733 155.763 70.7159 168.343 70.7159ZM162.002 45.8636C162.079 42.4631 164.891 40.1364 168.343 40.1364C171.846 40.1364 174.505 42.4886 174.582 45.8636H162.002ZM207.443 47.9091C207.469 44.0227 209.668 41.6705 213.17 41.6705C216.724 41.6705 218.821 44.0227 218.795 47.9091V70H232.909V44.9432C232.935 36.4034 227.54 30.2159 219.205 30.2159C213.426 30.2159 208.849 33.233 207.136 38.1932H206.727V30.7273H193.33V70H207.443V47.9091ZM247.061 84.7273C256.93 84.7273 261.558 79.767 263.732 73.2727L278.05 30.7273H263.22L256.777 57.9318H256.368L250.027 30.7273H235.3L249.107 71.7386L248.8 72.4545C247.854 74.6278 245.118 74.5511 241.641 73.3239L238.572 83.3466C240.771 84.2159 243.814 84.7273 247.061 84.7273ZM15.375 157H40.0227C51.4006 157 58.4318 150.787 58.4318 142.17C58.4318 134.781 52.9858 129.949 46.2614 129.693V129.182C52.321 127.98 56.3864 123.506 56.3864 117.727C56.3864 109.75 50.0455 104.636 38.0795 104.636H15.375V157ZM29.5909 145.648V134.602H36.4432C40.7642 134.602 43.3977 136.648 43.3977 140.33C43.3977 143.832 41.0199 145.648 36.2386 145.648H29.5909ZM29.5909 125.807V115.784H35.625C39.1534 115.784 41.7614 117.574 41.7614 120.795C41.7614 124.017 39.1534 125.807 35.4205 125.807H29.5909ZM82.4915 157.716C93.3835 157.716 100.389 152.5 101.719 144.318H88.8324C88.0142 146.543 85.6875 147.795 82.7983 147.795C78.6051 147.795 76.1506 145.034 76.1506 141.25V140.636H101.719V137.364C101.719 124.861 94.0483 117.216 82.1847 117.216C70.0142 117.216 62.2415 125.295 62.2415 137.466C62.2415 150.173 69.9119 157.716 82.4915 157.716ZM76.1506 132.864C76.2273 129.463 79.0398 127.136 82.4915 127.136C85.9943 127.136 88.6534 129.489 88.7301 132.864H76.1506ZM107.478 157H121.592V136.545C121.592 132.045 124.685 129.08 128.853 129.08C130.31 129.08 132.663 129.31 134.069 129.795V117.753C132.944 117.42 131.717 117.216 130.489 117.216C126.296 117.216 123.023 119.67 121.592 125.193H121.183V117.727H107.478V157ZM155.265 157.716C166.157 157.716 173.163 152.5 174.492 144.318H161.606C160.788 146.543 158.461 147.795 155.572 147.795C151.379 147.795 148.924 145.034 148.924 141.25V140.636H174.492V137.364C174.492 124.861 166.822 117.216 154.958 117.216C142.788 117.216 135.015 125.295 135.015 137.466C135.015 150.173 142.685 157.716 155.265 157.716ZM148.924 132.864C149.001 129.463 151.813 127.136 155.265 127.136C158.768 127.136 161.427 129.489 161.504 132.864H148.924ZM180.661 157H215.126V146.261H198.865V146.057L214.513 126.318V117.727H181.274V128.466H197.842V128.67L180.661 149.227V157ZM222.931 157H237.045V117.727H222.931V157ZM229.988 113.636C233.823 113.636 236.942 110.747 236.942 107.193C236.942 103.639 233.823 100.75 229.988 100.75C226.153 100.75 223.033 103.639 223.033 107.193C223.033 110.747 226.153 113.636 229.988 113.636ZM258.349 134.909C258.375 131.023 260.574 128.67 264.077 128.67C267.631 128.67 269.727 131.023 269.702 134.909V157H283.815V131.943C283.841 123.403 278.446 117.216 270.111 117.216C264.332 117.216 259.756 120.233 258.043 125.193H257.634V117.727H244.236V157H258.349V134.909Z" fill="white" fill-opacity="0.01"/>
</g>
<path d="M15.375 70H53.0114V58.5455H29.5909V49.5455H51.1705V38.0909H29.5909V29.0909H53.1136V17.6364H15.375V70ZM99.9482 30.7273H85.1186L78.7777 56.7045H78.3686L72.0277 30.7273H57.1982L70.3913 70H86.755L99.9482 30.7273ZM121.688 85.5455C134.114 85.5455 142.347 79.8693 142.347 69.8977V30.7273H128.233V37.5795H127.926C126.392 33.5909 122.71 30.2159 116.881 30.2159C109.108 30.2159 101.54 36.1477 101.54 50.3636C101.54 63.9659 108.597 69.4886 116.983 69.4886C122.301 69.4886 126.494 67.2386 128.028 63.25H128.438V69.8977C128.438 74.5256 125.753 76.0341 122.097 76.0341C118.849 76.0341 116.472 75.0625 116.062 72.5568H102.46C102.997 80.125 109.875 85.5455 121.688 85.5455ZM122.199 59.4659C118.312 59.4659 116.062 56.1932 116.062 50.3636C116.062 44.5341 118.312 41.0568 122.199 41.0568C126.085 41.0568 128.438 44.5341 128.438 50.3636C128.438 56.0909 126.085 59.4659 122.199 59.4659ZM168.343 70.7159C179.235 70.7159 186.241 65.5 187.57 57.3182H174.684C173.866 59.5426 171.539 60.7955 168.65 60.7955C164.457 60.7955 162.002 58.0341 162.002 54.25V53.6364H187.57V50.3636C187.57 37.8608 179.9 30.2159 168.036 30.2159C155.866 30.2159 148.093 38.2955 148.093 50.4659C148.093 63.1733 155.763 70.7159 168.343 70.7159ZM162.002 45.8636C162.079 42.4631 164.891 40.1364 168.343 40.1364C171.846 40.1364 174.505 42.4886 174.582 45.8636H162.002ZM207.443 47.9091C207.469 44.0227 209.668 41.6705 213.17 41.6705C216.724 41.6705 218.821 44.0227 218.795 47.9091V70H232.909V44.9432C232.935 36.4034 227.54 30.2159 219.205 30.2159C213.426 30.2159 208.849 33.233 207.136 38.1932H206.727V30.7273H193.33V70H207.443V47.9091ZM247.061 84.7273C256.93 84.7273 261.558 79.767 263.732 73.2727L278.05 30.7273H263.22L256.777 57.9318H256.368L250.027 30.7273H235.3L249.107 71.7386L248.8 72.4545C247.854 74.6278 245.118 74.5511 241.641 73.3239L238.572 83.3466C240.771 84.2159 243.814 84.7273 247.061 84.7273ZM15.375 157H40.0227C51.4006 157 58.4318 150.787 58.4318 142.17C58.4318 134.781 52.9858 129.949 46.2614 129.693V129.182C52.321 127.98 56.3864 123.506 56.3864 117.727C56.3864 109.75 50.0455 104.636 38.0795 104.636H15.375V157ZM29.5909 145.648V134.602H36.4432C40.7642 134.602 43.3977 136.648 43.3977 140.33C43.3977 143.832 41.0199 145.648 36.2386 145.648H29.5909ZM29.5909 125.807V115.784H35.625C39.1534 115.784 41.7614 117.574 41.7614 120.795C41.7614 124.017 39.1534 125.807 35.4205 125.807H29.5909ZM82.4915 157.716C93.3835 157.716 100.389 152.5 101.719 144.318H88.8324C88.0142 146.543 85.6875 147.795 82.7983 147.795C78.6051 147.795 76.1506 145.034 76.1506 141.25V140.636H101.719V137.364C101.719 124.861 94.0483 117.216 82.1847 117.216C70.0142 117.216 62.2415 125.295 62.2415 137.466C62.2415 150.173 69.9119 157.716 82.4915 157.716ZM76.1506 132.864C76.2273 129.463 79.0398 127.136 82.4915 127.136C85.9943 127.136 88.6534 129.489 88.7301 132.864H76.1506ZM107.478 157H121.592V136.545C121.592 132.045 124.685 129.08 128.853 129.08C130.31 129.08 132.663 129.31 134.069 129.795V117.753C132.944 117.42 131.717 117.216 130.489 117.216C126.296 117.216 123.023 119.67 121.592 125.193H121.183V117.727H107.478V157ZM155.265 157.716C166.157 157.716 173.163 152.5 174.492 144.318H161.606C160.788 146.543 158.461 147.795 155.572 147.795C151.379 147.795 148.924 145.034 148.924 141.25V140.636H174.492V137.364C174.492 124.861 166.822 117.216 154.958 117.216C142.788 117.216 135.015 125.295 135.015 137.466C135.015 150.173 142.685 157.716 155.265 157.716ZM148.924 132.864C149.001 129.463 151.813 127.136 155.265 127.136C158.768 127.136 161.427 129.489 161.504 132.864H148.924ZM180.661 157H215.126V146.261H198.865V146.057L214.513 126.318V117.727H181.274V128.466H197.842V128.67L180.661 149.227V157ZM222.931 157H237.045V117.727H222.931V157ZM229.988 113.636C233.823 113.636 236.942 110.747 236.942 107.193C236.942 103.639 233.823 100.75 229.988 100.75C226.153 100.75 223.033 103.639 223.033 107.193C223.033 110.747 226.153 113.636 229.988 113.636ZM258.349 134.909C258.375 131.023 260.574 128.67 264.077 128.67C267.631 128.67 269.727 131.023 269.702 134.909V157H283.815V131.943C283.841 123.403 278.446 117.216 270.111 117.216C264.332 117.216 259.756 120.233 258.043 125.193H257.634V117.727H244.236V157H258.349V134.909Z" fill="white"/>
<defs>
<filter id="filter0_d" x="0.375" y="6.63623" width="298.44" height="170.08" filterUnits="userSpaceOnUse" color-interpolation-filters="sRGB">
<feFlood flood-opacity="0" result="BackgroundImageFix"/>
<feColorMatrix in="SourceAlpha" type="matrix" values="0 0 0 0 0 0 0 0 0 0 0 0 0 0 0 0 0 0 127 0"/>
<feOffset dy="4"/>
<feGaussianBlur stdDeviation="7.5"/>
<feColorMatrix type="matrix" values="0 0 0 0 0.286275 0 0 0 0 0.811765 0 0 0 0 1 0 0 0 1 0"/>
<feBlend mode="normal" in2="BackgroundImageFix" result="effect1_dropShadow"/>
<feBlend mode="normal" in="SourceGraphic" in2="effect1_dropShadow" result="shape"/>
</filter>
</defs>
</svg>
